<svg width="20" height="23" viewBox="0 0 20 23" fill="none" xmlns="http://www.w3.org/2000/svg">
<path d="M2.71494 11.2019L2.72674 15.5269L6.40171 17.6894V20.2215L0.576018 16.8048V9.93713L2.71494 11.2019ZM2.71494 6.87684V9.39715L0.574707 8.1311V5.61078L2.71494 4.34473L4.86566 5.61078L2.71494 6.87684ZM7.93644 5.61078L10.0767 4.34473L12.2274 5.61078L10.0767 6.87684L7.93644 5.61078Z" fill="white"/>
<path d="M4.26172 14.6304V12.0983L6.40195 13.3644V15.8847L4.26172 14.6304ZM7.93669 18.5964L10.0769 19.8624L12.2276 18.5964V21.1167L10.0769 22.3827L7.93669 21.1167V18.5964ZM15.2971 5.61078L17.4373 4.34473L19.5881 5.61078V8.1311L17.4373 9.39715V6.87684L15.2971 5.61078ZM17.4373 15.5269L17.4491 11.2019L19.5894 9.93581V16.8034L13.7637 20.2202V17.6881L17.4373 15.5269Z" fill="white"/>
<path d="M15.9024 14.6303L13.7622 15.8845V13.3642L15.9024 12.0981V14.6303Z" fill="white"/>
<path d="M15.9026 7.77329L15.9144 10.3054L12.229 12.4679V16.8034L10.0887 18.0577L7.94848 16.8034V12.4679L4.26303 10.3054V7.77329L6.41244 6.50724L10.0756 8.68024L13.7611 6.50724L15.9118 7.77329H15.9026ZM4.26172 3.44957L10.0769 0.0209961L15.9026 3.44957L13.7624 4.71562L10.0769 2.54262L6.40195 4.71562L4.26172 3.44957Z" fill="white"/>
</svg>
