<svg width="19" height="17" viewBox="0 0 19 17" fill="none" xmlns="http://www.w3.org/2000/svg">
<path fill-rule="evenodd" clip-rule="evenodd" d="M4.60067 16.2018H1.57267C0.936671 16.2018 0.622671 16.2018 0.430671 16.0788C0.329511 16.0128 0.245301 15.9239 0.184847 15.8193C0.124393 15.7147 0.0893917 15.5974 0.0826708 15.4768C0.0706708 15.2508 0.227671 14.9738 0.542671 14.4218L8.01467 1.22881C8.33267 0.668806 8.49467 0.388806 8.69667 0.284806C8.80479 0.229828 8.92437 0.201172 9.04567 0.201172C9.16697 0.201172 9.28655 0.229828 9.39467 0.284806C9.59767 0.388806 9.75867 0.668806 10.0767 1.22881L11.6127 3.91481L11.6207 3.92881C11.9637 4.52881 12.1377 4.83481 12.2137 5.15481C12.2987 5.50506 12.2987 5.87056 12.2137 6.22081C12.1377 6.54381 11.9647 6.85081 11.6167 7.46081L7.69067 14.4108L7.68067 14.4278C7.33467 15.0338 7.16067 15.3408 6.91667 15.5728C6.65407 15.8243 6.33523 16.0094 5.98667 16.1128C5.66767 16.2018 5.31267 16.2018 4.60067 16.2018ZM12.2437 16.2018H16.5797C17.2197 16.2018 17.5417 16.2018 17.7337 16.0758C17.8356 16.0094 17.9203 15.9198 17.9808 15.8142C18.0413 15.7087 18.0759 15.5903 18.0817 15.4688C18.0927 15.2498 17.9397 14.9848 17.6387 14.4638L17.6067 14.4098L15.4347 10.6878L15.4097 10.6458C15.1047 10.1288 14.9497 9.86781 14.7527 9.76681C14.6454 9.71203 14.5266 9.68347 14.4062 9.68347C14.2857 9.68347 14.167 9.71203 14.0597 9.76681C13.8597 9.87081 13.6997 10.1438 13.3817 10.6918L11.2167 14.4138L11.2097 14.4268C10.8927 14.9748 10.7337 15.2478 10.7457 15.4728C10.7523 15.594 10.7873 15.7119 10.8477 15.8171C10.9081 15.9224 10.9924 16.012 11.0937 16.0788C11.2817 16.2018 11.6037 16.2018 12.2437 16.2018Z" fill="white"/>
</svg>
