<svg width="18" height="24" viewBox="0 0 18 24" fill="none" xmlns="http://www.w3.org/2000/svg">
<path d="M16.9877 12.591C16.4301 11.87 15.5887 11.3748 14.4636 11.1056C15.8964 10.3748 16.526 9.13434 16.3532 7.38413C16.2954 6.74947 16.12 6.19942 15.8266 5.73319C15.5329 5.26685 15.1367 4.89195 14.6364 4.60834C14.1365 4.32438 13.5927 4.10821 13.0065 3.95918C12.4201 3.81015 11.7468 3.70194 10.9871 3.6347V0H8.76615V3.53371C8.38156 3.53371 7.79504 3.54331 7.00665 3.56256V0H4.78535V3.6347C4.46794 3.64435 4.00166 3.64925 3.38629 3.64925L0.328613 3.6347V6.00018H1.92949C2.66029 6.00018 3.08818 6.32718 3.21317 6.98094V11.1205C3.30945 11.1205 3.38629 11.1255 3.44404 11.1351H3.21317V16.933C3.13633 17.4233 2.85752 17.6687 2.37668 17.6687H0.775904L0.328714 20.3082H3.21342C3.39614 20.3082 3.66041 20.3106 4.00671 20.315C4.35281 20.3198 4.61233 20.3223 4.78545 20.3223V24.0002H7.0071V20.3655C7.41084 20.3754 7.99736 20.3801 8.76661 20.3801V24.0002H10.9877V20.3223C11.7763 20.2839 12.4758 20.2121 13.0861 20.106C13.6967 19.9999 14.281 19.8343 14.8386 19.6081C15.3961 19.3823 15.8624 19.1009 16.2373 18.7643C16.6125 18.4281 16.9223 18 17.1679 17.4806C17.4127 16.9613 17.5692 16.3603 17.6363 15.6775C17.7618 14.3413 17.5453 13.3123 16.9877 12.591ZM7.04984 6.1584C7.11718 6.1584 7.30708 6.15598 7.61959 6.15113C7.93225 6.14618 8.19176 6.14143 8.39848 6.13658C8.60525 6.13183 8.88412 6.14385 9.23522 6.1727C9.58617 6.20154 9.8818 6.24009 10.1221 6.28808C10.3624 6.33607 10.6271 6.41544 10.9153 6.52602C11.204 6.63651 11.4346 6.77119 11.6075 6.92982C11.7807 7.08845 11.9273 7.29047 12.0473 7.53569C12.1677 7.78085 12.2278 8.06209 12.2278 8.37934C12.2278 8.64861 12.1846 8.89388 12.0981 9.11515C12.0119 9.33626 11.8817 9.52141 11.7089 9.67044C11.5359 9.81952 11.3577 9.94946 11.175 10.0599C10.9924 10.1704 10.7591 10.2594 10.4755 10.3267C10.192 10.394 9.9444 10.4469 9.73298 10.4853C9.5214 10.5238 9.25704 10.5503 8.93968 10.5647C8.62228 10.579 8.38181 10.5888 8.21843 10.5936C8.0549 10.5983 7.83141 10.5983 7.54765 10.5936C7.26384 10.5888 7.09819 10.5863 7.04999 10.5863V6.15835H7.04984V6.1584ZM13.1151 15.9806C13.0235 16.2018 12.9059 16.3942 12.7618 16.5578C12.6174 16.721 12.4274 16.8654 12.1919 16.9902C11.9565 17.1154 11.7279 17.2162 11.5069 17.2931C11.2857 17.3704 11.0187 17.4373 10.7065 17.4952C10.3936 17.5529 10.1197 17.5936 9.88392 17.6178C9.64846 17.6419 9.36732 17.661 9.04027 17.6755C8.71346 17.6897 8.4585 17.697 8.27587 17.697C8.09315 17.697 7.86233 17.6944 7.58347 17.6897C7.30445 17.6852 7.12673 17.6828 7.04974 17.6828V12.8075C7.12658 12.8075 7.35497 12.8028 7.73487 12.793C8.11482 12.7833 8.42475 12.7788 8.66517 12.7788C8.90553 12.7788 9.23739 12.793 9.66063 12.822C10.0835 12.8507 10.4393 12.8938 10.728 12.9515C11.0163 13.0093 11.331 13.0981 11.6726 13.2184C12.0139 13.3385 12.2905 13.4851 12.5021 13.6582C12.7137 13.8316 12.8914 14.0524 13.0356 14.3217C13.1802 14.5909 13.2522 14.8986 13.2522 15.2449C13.2522 15.5144 13.2066 15.7592 13.1151 15.9806Z" fill="#F6543E"/>
</svg>
