<svg width="22" height="23" viewBox="0 0 22 23" fill="none" xmlns="http://www.w3.org/2000/svg">
<path d="M6.42625 12.9358C7.03733 12.9358 7.63351 12.7321 8.11542 12.3595L4.24027 8.48438C3.30626 9.69163 3.52983 11.4305 4.73709 12.3645C5.22396 12.7321 5.81517 12.9358 6.42625 12.9358Z" fill="#027F60"/>
<path d="M17.9534 10.1696C17.9534 9.55855 17.7497 8.96238 17.3771 8.48047L13.502 12.3556C14.7092 13.2896 16.4431 13.0661 17.3771 11.8588C17.7497 11.3769 17.9534 10.7807 17.9534 10.1696Z" fill="#027F60"/>
<path d="M19.9052 5.95215L18.1912 7.66616C19.5724 9.32054 19.3538 11.7847 17.6994 13.1659C16.2487 14.3781 14.1422 14.3781 12.6915 13.1659L10.8086 15.0488L8.93061 13.1708C7.27622 14.552 4.81203 14.3334 3.43089 12.679C2.21866 11.2283 2.21866 9.12182 3.43089 7.67112L2.55153 6.79176L1.71688 5.95215C0.708348 7.61151 0.176758 9.51927 0.176758 11.4618C0.176758 17.3341 4.93623 22.0936 10.8086 22.0936C16.6809 22.0936 21.4404 17.3341 21.4404 11.4618C21.4453 9.51927 20.9088 7.61151 19.9052 5.95215Z" fill="#027F60"/>
<path d="M18.4996 4.12324C14.4506 -0.124514 7.72373 -0.283494 3.47597 3.76554C3.35177 3.88477 3.23253 4.00401 3.11827 4.12324C2.85496 4.40146 2.60655 4.68961 2.37305 4.99267L10.8089 13.4335L19.2448 4.99267C19.0163 4.68961 18.7629 4.40146 18.4996 4.12324ZM10.8089 2.22045C13.293 2.22045 15.6082 3.1793 17.347 4.92808L10.8089 11.4661L4.27087 4.92808C6.00972 3.1793 8.32487 2.22045 10.8089 2.22045Z" fill="#027F60"/>
</svg>
