<svg width="25" height="25" viewBox="0 0 25 25" fill="none" xmlns="http://www.w3.org/2000/svg">
<g clip-path="url(#clip0_475_634)">
<path d="M16.0332 13.0977L22.9972 17.1597L20.0242 18.0097L22.1492 21.6907L20.4172 22.6907L18.2922 19.0107L16.0692 21.1607L16.0332 13.0977ZM14.0332 6.09766H16.0332V8.09766H21.0332C21.2984 8.09766 21.5528 8.20301 21.7403 8.39055C21.9278 8.57809 22.0332 8.83244 22.0332 9.09766V13.0977H20.0332V10.0977H10.0332V20.0977H14.0332V22.0977H9.0332C8.76799 22.0977 8.51363 21.9923 8.3261 21.8048C8.13856 21.6172 8.0332 21.3629 8.0332 21.0977V16.0977H6.0332V14.0977H8.0332V9.09766C8.0332 8.83244 8.13856 8.57809 8.3261 8.39055C8.51363 8.20301 8.76799 8.09766 9.0332 8.09766H14.0332V6.09766ZM4.0332 14.0977V16.0977H2.0332V14.0977H4.0332ZM4.0332 10.0977V12.0977H2.0332V10.0977H4.0332ZM4.0332 6.09766V8.09766H2.0332V6.09766H4.0332ZM4.0332 2.09766V4.09766H2.0332V2.09766H4.0332ZM8.0332 2.09766V4.09766H6.0332V2.09766H8.0332ZM12.0332 2.09766V4.09766H10.0332V2.09766H12.0332ZM16.0332 2.09766V4.09766H14.0332V2.09766H16.0332Z" fill="#CACACA"/>
</g>
<defs>
<clipPath id="clip0_475_634">
<rect width="24" height="24" fill="white" transform="translate(0.0332031 0.0976562)"/>
</clipPath>
</defs>
</svg>
