<svg width="25" height="25" viewBox="0 0 25 25" fill="none" xmlns="http://www.w3.org/2000/svg">
<g clip-path="url(#clip0_452_4662)">
<path d="M4.5332 11.0977C3.7082 11.0977 3.0332 11.7727 3.0332 12.5977C3.0332 13.4227 3.7082 14.0977 4.5332 14.0977C5.3582 14.0977 6.0332 13.4227 6.0332 12.5977C6.0332 11.7727 5.3582 11.0977 4.5332 11.0977ZM19.5332 11.0977C18.7082 11.0977 18.0332 11.7727 18.0332 12.5977C18.0332 13.4227 18.7082 14.0977 19.5332 14.0977C20.3582 14.0977 21.0332 13.4227 21.0332 12.5977C21.0332 11.7727 20.3582 11.0977 19.5332 11.0977ZM12.0332 11.0977C11.2082 11.0977 10.5332 11.7727 10.5332 12.5977C10.5332 13.4227 11.2082 14.0977 12.0332 14.0977C12.8582 14.0977 13.5332 13.4227 13.5332 12.5977C13.5332 11.7727 12.8582 11.0977 12.0332 11.0977Z" fill="#4A4A4B"/>
</g>
<defs>
<clipPath id="clip0_452_4662">
<rect width="24" height="24" fill="white" transform="translate(0.0332031 0.597656)"/>
</clipPath>
</defs>
</svg>
