<svg width="25" height="25" viewBox="0 0 25 25" fill="none" xmlns="http://www.w3.org/2000/svg">
<g clip-path="url(#clip0_452_4658)">
<path d="M18.6193 20.5972H4.03327C3.94041 20.5972 3.84939 20.5714 3.7704 20.5226C3.69142 20.4737 3.62758 20.4039 3.58606 20.3208C3.54453 20.2378 3.52695 20.1448 3.53529 20.0523C3.54363 19.9599 3.57756 19.8715 3.63327 19.7972L4.03327 19.2642V10.5972C4.03327 9.26723 4.35727 8.01323 4.93227 6.91023L1.42627 3.40523L2.84127 1.99023L22.6403 21.7902L21.2253 23.2042L18.6193 20.5972ZM6.44127 8.41923C6.17089 9.11351 6.03252 9.85217 6.03327 10.5972V18.5972H16.6193L6.44127 8.41923ZM20.0333 16.3832L18.0333 14.3832V10.5972C18.0335 9.5449 17.7569 8.51102 17.2313 7.59935C16.7057 6.68768 15.9495 5.93028 15.0387 5.40315C14.1279 4.87603 13.0945 4.59772 12.0422 4.59615C10.9899 4.59459 9.95563 4.86982 9.04327 5.39423L7.59327 3.94223C8.798 3.13845 10.1983 2.67678 11.6449 2.60647C13.0914 2.53616 14.5299 2.85985 15.8069 3.54301C17.084 4.22616 18.1516 5.24316 18.8959 6.48552C19.6402 7.72787 20.0333 9.14898 20.0333 10.5972V16.3832ZM9.53327 21.5972H14.5333C14.5333 22.2603 14.2699 22.8962 13.801 23.365C13.3322 23.8338 12.6963 24.0972 12.0333 24.0972C11.3702 24.0972 10.7343 23.8338 10.2655 23.365C9.79666 22.8962 9.53327 22.2603 9.53327 21.5972Z" fill="#6A6A6B"/>
</g>
<defs>
<clipPath id="clip0_452_4658">
<rect width="24" height="24" fill="white" transform="translate(0.0332031 0.597656)"/>
</clipPath>
</defs>
</svg>
