<svg width="27" height="26" viewBox="0 0 27 26" fill="none" xmlns="http://www.w3.org/2000/svg">
<path d="M21.1356 15.728L19.2104 7.38545C20.2371 6.74371 21.0072 5.58863 21.0072 4.17676C21.0072 1.99477 19.3388 0.326346 17.1568 0.326346C14.9748 0.326346 13.3064 1.99477 13.3064 4.17676C13.3064 5.07529 13.6914 5.97358 14.2049 6.61532L10.2261 13.2894C9.96935 13.161 9.45599 13.161 9.32759 13.161L6.88904 7.00032C7.65917 6.35859 8.17252 5.33172 8.17252 4.17659C8.17252 1.99459 6.50409 0.326172 4.3221 0.326172C2.1401 0.326172 0.47168 1.99459 0.47168 4.17659C0.47168 6.35859 2.1401 8.02701 4.3221 8.02701H4.45048L6.88903 14.1877C6.1189 14.9578 5.60556 15.8561 5.60556 17.0114C5.60556 19.1934 7.27398 20.8618 9.45598 20.8618C11.638 20.8618 13.3064 19.1934 13.3064 17.0114C13.3064 16.1129 12.9214 15.2146 12.4079 14.5729L16.3867 7.8988H16.7717L18.6969 16.2414C17.0284 17.1399 15.8731 18.8083 15.8731 20.7335C15.8731 23.5573 18.1833 25.8674 21.007 25.8674C23.8308 25.8674 26.1409 23.5573 26.1409 20.7335C26.1411 18.0382 23.9594 15.8564 21.1356 15.728ZM4.32214 5.46024C3.55201 5.46024 3.03867 4.94689 3.03867 4.17676C3.03867 3.40663 3.55201 2.89329 4.32214 2.89329C5.09227 2.89329 5.60562 3.40663 5.60562 4.17676C5.60562 4.94689 5.09227 5.46024 4.32214 5.46024ZM9.45603 18.295C8.6859 18.295 8.17256 17.7816 8.17256 17.0115C8.17256 15.8564 9.32764 15.728 9.45603 15.728C10.2262 15.728 10.7395 16.2414 10.7395 17.0115C10.7395 17.6532 10.0978 18.295 9.45603 18.295ZM17.1569 5.46024C16.3867 5.46024 15.8734 4.94689 15.8734 4.17676C15.8734 3.40663 16.3867 2.89329 17.1569 2.89329C17.927 2.89329 18.4403 3.40663 18.4403 4.17676C18.4403 4.8185 17.7986 5.46024 17.1569 5.46024ZM21.0073 23.4289C19.5954 23.4289 18.4403 22.2738 18.4403 20.8619C18.4403 19.45 19.5954 18.295 21.0073 18.295C22.4192 18.295 23.5742 19.45 23.5742 20.8619C23.5742 22.2738 22.4192 23.4289 21.0073 23.4289Z" fill="white"/>
</svg>
