<svg width="14" height="23" viewBox="0 0 14 23" fill="none" xmlns="http://www.w3.org/2000/svg">
<path fill-rule="evenodd" clip-rule="evenodd" d="M8.09083 8.20289L11.9375 5.95899V10.4468L8.09083 8.20289ZM11.9375 17.8196L6.8086 20.8115L1.67969 17.8196V12.5838L6.8086 15.5757L11.9375 12.5838V17.8196ZM1.67969 5.95899L5.52637 8.20289L1.67969 10.4468V5.95899ZM7.44972 9.27141L11.2964 11.5153L7.44972 13.7592V9.27141ZM6.16749 13.7592L2.3208 11.5153L6.16749 9.27141V13.7592ZM11.2964 4.89047L6.8086 7.45492L2.3208 4.89047L6.8086 2.21916L11.2964 4.89047ZM0.397461 4.46306V18.4607L6.8086 22.0937L13.2197 18.4607V4.46306L6.8086 0.830078L0.397461 4.46306Z" fill="white"/>
</svg>
