<svg width="19" height="17" viewBox="0 0 19 17" fill="none" xmlns="http://www.w3.org/2000/svg">
<path d="M11.4659 7.59872C11.4659 7.788 11.3123 7.94157 11.1231 7.94157H3.8409C3.65162 7.94157 3.49805 7.788 3.49805 7.59872C3.49805 7.40943 3.65162 7.25586 3.8409 7.25586H11.1231C11.3123 7.25586 11.4659 7.40943 11.4659 7.59872ZM6.55176 11.2559H3.84103C3.65175 11.2559 3.49818 11.4094 3.49818 11.5987C3.49818 11.788 3.65175 11.9416 3.84103 11.9416H6.55176C6.74105 11.9416 6.89462 11.788 6.89462 11.5987C6.89462 11.4094 6.74105 11.2559 6.55176 11.2559ZM15.6946 3.25586H3.84103C3.65175 3.25586 3.49818 3.40943 3.49818 3.59872C3.49818 3.788 3.65175 3.94157 3.84103 3.94157H15.6946C15.8839 3.94157 16.0375 3.788 16.0375 3.59872C16.0375 3.40943 15.8839 3.25586 15.6946 3.25586Z" fill="#D8DBD5" stroke="#D8DBD5"/>
</svg>
