<svg width="25" height="25" viewBox="0 0 25 25" fill="none" xmlns="http://www.w3.org/2000/svg">
<path d="M14.801 22.5002H4.80097C4.26505 22.5188 3.74545 22.3141 3.36626 21.9349C2.98708 21.5557 2.78235 21.0361 2.80097 20.5002V10.5002C2.78235 9.96427 2.98708 9.44467 3.36626 9.06548C3.74545 8.6863 4.26505 8.48157 4.80097 8.50019H8.80097V4.50019C8.78235 3.96427 8.98708 3.44467 9.36626 3.06548C9.74545 2.6863 10.265 2.48157 10.801 2.50019H20.801C21.3369 2.48157 21.8565 2.6863 22.2357 3.06548C22.6149 3.44467 22.8196 3.96427 22.801 4.50019V14.5002C22.8193 15.036 22.6145 15.5555 22.2354 15.9346C21.8562 16.3137 21.3368 16.5185 20.801 16.5002H16.801V20.5002C16.8193 21.036 16.6145 21.5555 16.2354 21.9346C15.8562 22.3137 15.3368 22.5185 14.801 22.5002ZM4.80097 10.5002V20.5002H14.801V16.5002H10.801C10.2651 16.5185 9.74571 16.3137 9.36659 15.9346C8.98747 15.5555 8.78265 15.036 8.80097 14.5002V10.5002H4.80097ZM10.801 4.50019V14.5002H20.801V4.50019H10.801Z" fill="#F6F9F3"/>
</svg>
