<svg width="19" height="18" viewBox="0 0 19 18" fill="none" xmlns="http://www.w3.org/2000/svg">
<path opacity="0.43" d="M9.51362 0.121094C4.75817 0.121094 0.903338 4.07011 0.903338 8.94149C0.900508 10.3718 1.2405 11.7822 1.89466 13.054C3.33758 15.8536 6.20815 17.7619 9.51359 17.7619C12.819 17.7619 15.6898 15.8537 17.1325 13.054C17.7867 11.782 18.1267 10.3717 18.1238 8.94149C18.1238 4.07011 14.2687 0.121094 9.51356 0.121094H9.51362ZM9.51362 2.48175C11.4264 2.48175 12.9766 4.07011 12.9766 6.03007C12.9766 7.98993 11.4262 9.57839 9.51362 9.57839C7.60101 9.57839 6.05067 7.99003 6.05067 6.03007C6.05067 4.07021 7.60076 2.48175 9.51362 2.48175ZM9.51362 16.2287C6.78862 16.2287 4.4211 14.6589 3.22688 12.354C5.19758 11.443 7.34286 10.9712 9.51362 10.9712C11.6844 10.9712 13.8299 11.443 15.8004 12.354C14.6059 14.6588 12.2385 16.2287 9.51362 16.2287Z" fill="#D8DBD5"/>
</svg>
