<svg width="33" height="25" viewBox="0 0 33 25" fill="none" xmlns="http://www.w3.org/2000/svg">
<path d="M28.7041 24.2015H11.0786C8.82833 24.2015 6.98889 22.4417 6.89089 20.1953C6.88395 20.0363 6.94225 19.8816 7.05218 19.767C7.16211 19.6523 7.31424 19.5871 7.47303 19.5871C10.6472 19.5857 13.2295 16.982 13.2295 13.7843C13.2295 10.5841 10.6458 7.98064 7.46969 7.98064C7.14795 7.98064 6.88672 7.71941 6.88672 7.39767V2.36715C6.88672 2.04541 7.14795 1.78418 7.46969 1.78418C7.79144 1.78418 8.05267 2.04541 8.05267 2.36715C8.05267 2.9182 8.50128 3.36629 9.0523 3.36629H28.7039C29.5961 3.36629 30.3223 4.09225 30.3223 4.98421V10.4256C30.3223 10.7473 30.0611 11.0085 29.7393 11.0085L25.1183 11.0088C23.5879 11.0088 22.3425 12.2536 22.3425 13.7838C22.3425 15.3142 23.5878 16.5596 25.1183 16.5596H29.7391C30.0609 16.5596 30.3221 16.8208 30.3221 17.1426V22.5837C30.3221 23.4756 29.5961 24.2016 28.7037 24.2016L28.7041 24.2015ZM8.13642 20.7211C8.45511 22.0569 9.65243 23.0355 11.0788 23.0355H28.7042C28.9538 23.0355 29.1567 22.8325 29.1567 22.5835V17.7254H25.1189C22.9456 17.7254 21.1772 15.9571 21.1772 13.7837C21.1772 11.6108 22.9456 9.84276 25.1189 9.84276H29.1567V4.98437C29.1567 4.73536 28.9538 4.53242 28.7042 4.53242H9.05262C8.69229 4.53242 8.35222 4.44387 8.05299 4.28758V6.83904C11.6002 7.13802 14.3958 10.1387 14.3958 13.7843C14.3958 17.3998 11.6438 20.3827 8.13656 20.7211L8.13642 20.7211Z" fill="white"/>
<path d="M27.4449 4.53291H9.05333C7.85933 4.53291 6.8877 3.56128 6.8877 2.36727C6.8877 2.28677 6.89241 2.20487 6.9013 2.12325C7.024 1.02754 7.94897 0.20166 9.05272 0.20166H26.4088C27.3019 0.202771 28.0275 0.928681 28.0275 1.82008V3.9499C28.0278 4.27165 27.7666 4.53291 27.4449 4.53291ZM9.05333 1.36764C8.5442 1.36764 8.11695 1.74824 8.06059 2.25292C8.05643 2.29179 8.05393 2.32899 8.05393 2.3673C8.05393 2.91835 8.50254 3.36694 9.05357 3.36694H26.8617V1.82008C26.8617 1.57107 26.6579 1.36813 26.4081 1.36758L9.05333 1.36764Z" fill="white"/>
<path d="M31.0597 17.7257H25.1195C22.9461 17.7257 21.1777 15.9574 21.1777 13.784C21.1777 11.6106 22.9461 9.84277 25.1195 9.84277H31.0597C31.952 9.84277 32.6782 10.5687 32.6782 11.4607V16.1079C32.6782 17.0001 31.9519 17.7257 31.0597 17.7257ZM25.1195 11.0087C23.5891 11.0087 22.3437 12.2535 22.3437 13.784C22.3437 15.3144 23.589 16.5598 25.1195 16.5598H31.0597C31.3093 16.5598 31.5122 16.3569 31.5122 16.1078V11.4607C31.5122 11.2117 31.3093 11.0087 31.0597 11.0087L25.1195 11.0087Z" fill="white"/>
<path d="M7.47067 17.0135C7.14893 17.0135 6.8877 16.7523 6.8877 16.4306V11.1377C6.8877 10.8159 7.14893 10.5547 7.47067 10.5547C7.79241 10.5547 8.05364 10.8159 8.05364 11.1377V16.4308C8.05364 16.7525 7.79269 17.0135 7.47067 17.0135Z" fill="white"/>
<path d="M10.0992 14.3666H4.84274C4.521 14.3666 4.25977 14.1054 4.25977 13.7837C4.25977 13.4619 4.521 13.2007 4.84274 13.2007H10.0992C10.421 13.2007 10.6822 13.4619 10.6822 13.7837C10.6822 14.1057 10.421 14.3666 10.0992 14.3666Z" fill="white"/>
<path d="M7.47483 20.7533H7.47066C3.65192 20.7533 0.544922 17.6269 0.544922 13.7845C0.544922 9.94163 3.65192 6.81494 7.47066 6.81494C11.2891 6.81494 14.3961 9.94163 14.3961 13.7845C14.3958 17.6252 11.2909 20.7513 7.47483 20.7533ZM7.47039 7.98109C4.29431 7.98109 1.71058 10.5848 1.71058 13.7847C1.71058 16.9844 4.29424 19.5875 7.47039 19.5875H7.47427C10.6476 19.5862 13.2299 16.9825 13.2299 13.7847C13.2299 10.5845 10.6462 7.98109 7.47039 7.98109Z" fill="white"/>
<path d="M24.9412 14.6095C24.4862 14.6095 24.1162 14.2395 24.1162 13.7845C24.1162 13.3295 24.4863 12.9595 24.9412 12.9595C25.3962 12.9595 25.7663 13.3295 25.7663 13.7845C25.7663 14.2395 25.3965 14.6095 24.9412 14.6095ZM24.9412 13.4436C24.753 13.4436 24.6003 13.5963 24.6003 13.7845C24.6003 13.9727 24.753 14.1254 24.9412 14.1254C25.1294 14.1254 25.2821 13.9727 25.2821 13.7845C25.2821 13.5963 25.1295 13.4436 24.9412 13.4436Z" fill="white"/>
</svg>
