<svg width="24" height="20" viewBox="0 0 24 20" fill="none" xmlns="http://www.w3.org/2000/svg">
<path d="M23.6744 9.99185C23.6663 9.11438 23.3127 8.27544 22.6903 7.65684L15.5352 0.485004C15.2227 0.174362 14.8 0 14.3593 0C13.9187 0 13.496 0.174362 13.1835 0.485004C13.0272 0.640054 12.9031 0.824522 12.8184 1.02777C12.7337 1.23101 12.6901 1.44901 12.6901 1.66919C12.6901 1.88937 12.7337 2.10737 12.8184 2.31061C12.9031 2.51386 13.0272 2.69833 13.1835 2.85338L18.6708 8.32398H1.99209C1.54974 8.32398 1.12551 8.49971 0.812726 8.81249C0.49994 9.12528 0.324219 9.54951 0.324219 9.99185C0.324219 10.4342 0.49994 10.8584 0.812726 11.1712C1.12551 11.484 1.54974 11.6597 1.99209 11.6597H18.6708L13.1835 17.147C12.8694 17.4589 12.6921 17.8827 12.6905 18.3253C12.689 18.7679 12.8633 19.193 13.1751 19.507C13.487 19.8211 13.9108 19.9984 14.3534 20C14.796 20.0016 15.2211 19.8272 15.5352 19.5154L22.6903 12.3435C23.3168 11.7208 23.6707 10.8751 23.6744 9.99185Z" fill="currentColor"/>
</svg>
