<svg width="21" height="17" viewBox="0 0 21 17" fill="none" xmlns="http://www.w3.org/2000/svg">
<path d="M6.54297 16.4743C4.75624 16.4752 3.19538 15.2668 2.7487 13.5368H0.667969V11.5784H2.74968C3.25849 9.60782 5.19183 8.35527 7.19831 8.69633C9.20478 9.03739 10.6157 10.8584 10.4448 12.8864C10.2739 14.9145 8.57822 16.4738 6.54297 16.4743ZM6.54297 10.5993C5.47313 10.6004 4.60215 11.4598 4.58682 12.5295C4.57149 13.5993 5.41748 14.4833 6.48685 14.5151C7.55622 14.5468 8.45316 13.7145 8.5013 12.6457V13.0374V12.5576C8.5013 11.4761 7.62453 10.5993 6.54297 10.5993ZM20.2513 13.5368H11.4388V11.5784H20.2513V13.5368ZM11.4388 8.64095C9.65244 8.6414 8.0921 7.43308 7.64551 5.70345H0.667969V3.74511H7.64551C8.15432 1.77449 10.0877 0.521939 12.0941 0.862996C14.1006 1.20405 15.5115 3.02505 15.3406 5.05312C15.1698 7.08118 13.4741 8.64043 11.4388 8.64095ZM11.4388 2.76595C10.369 2.76703 9.49798 3.62648 9.48265 4.69622C9.46732 5.76595 10.3133 6.65001 11.3827 6.68175C12.4521 6.71349 13.349 5.88116 13.3971 4.8124V5.20407V4.72428C13.3971 3.64272 12.5204 2.76595 11.4388 2.76595ZM20.2513 5.70345H16.3346V3.74511H20.2513V5.70345Z" fill="currentColor"/>
</svg>
