<svg width="10" height="11" viewBox="0 0 10 11" fill="none" xmlns="http://www.w3.org/2000/svg">
<path d="M5.59331 8.10999L3.49381 6.96499C3.2197 7.25802 2.8638 7.46183 2.47234 7.54993C2.08089 7.63804 1.67198 7.60636 1.29877 7.45901C0.925552 7.31166 0.605286 7.05547 0.37959 6.72371C0.153894 6.39196 0.0332031 5.99999 0.0332031 5.59874C0.0332031 5.19749 0.153894 4.80552 0.37959 4.47377C0.605286 4.14201 0.925552 3.88582 1.29877 3.73847C1.67198 3.59113 2.08089 3.55945 2.47234 3.64755C2.8638 3.73565 3.2197 3.93946 3.49381 4.23249L5.59381 3.08749C5.47458 2.61553 5.53158 2.11628 5.75412 1.68334C5.97666 1.2504 6.34946 0.913481 6.80264 0.735741C7.25582 0.558001 7.75827 0.551643 8.2158 0.717858C8.67333 0.884072 9.05454 1.21145 9.28796 1.63862C9.52138 2.06579 9.591 2.56343 9.48376 3.03826C9.37652 3.51309 9.09978 3.93251 8.70542 4.2179C8.31107 4.50328 7.82616 4.63505 7.34161 4.58849C6.85705 4.54193 6.40611 4.32025 6.07331 3.96499L3.97331 5.10999C4.05391 5.43067 4.05391 5.76631 3.97331 6.08699L6.07281 7.23199C6.40561 6.87674 6.85655 6.65505 7.34111 6.60849C7.82566 6.56193 8.31057 6.6937 8.70492 6.97909C9.09928 7.26447 9.37602 7.68389 9.48326 8.15872C9.5905 8.63355 9.52088 9.13119 9.28746 9.55836C9.05404 9.98553 8.67283 10.3129 8.2153 10.4791C7.75777 10.6453 7.25532 10.639 6.80214 10.4612C6.34896 10.2835 5.97616 9.94658 5.75362 9.51364C5.53108 9.0807 5.47408 8.58145 5.59331 8.10949V8.10999ZM2.03331 6.59849C2.29852 6.59849 2.55288 6.49313 2.74041 6.3056C2.92795 6.11806 3.03331 5.86371 3.03331 5.59849C3.03331 5.33327 2.92795 5.07892 2.74041 4.89138C2.55288 4.70385 2.29852 4.59849 2.03331 4.59849C1.76809 4.59849 1.51374 4.70385 1.3262 4.89138C1.13866 5.07892 1.03331 5.33327 1.03331 5.59849C1.03331 5.86371 1.13866 6.11806 1.3262 6.3056C1.51374 6.49313 1.76809 6.59849 2.03331 6.59849ZM7.53331 3.59849C7.79852 3.59849 8.05288 3.49313 8.24041 3.3056C8.42795 3.11806 8.53331 2.86371 8.53331 2.59849C8.53331 2.33327 8.42795 2.07892 8.24041 1.89138C8.05288 1.70385 7.79852 1.59849 7.53331 1.59849C7.26809 1.59849 7.01374 1.70385 6.8262 1.89138C6.63866 2.07892 6.53331 2.33327 6.53331 2.59849C6.53331 2.86371 6.63866 3.11806 6.8262 3.3056C7.01374 3.49313 7.26809 3.59849 7.53331 3.59849ZM7.53331 9.59849C7.79852 9.59849 8.05288 9.49313 8.24041 9.3056C8.42795 9.11806 8.53331 8.86371 8.53331 8.59849C8.53331 8.33327 8.42795 8.07892 8.24041 7.89138C8.05288 7.70385 7.79852 7.59849 7.53331 7.59849C7.26809 7.59849 7.01374 7.70385 6.8262 7.89138C6.63866 8.07892 6.53331 8.33327 6.53331 8.59849C6.53331 8.86371 6.63866 9.11806 6.8262 9.3056C7.01374 9.49313 7.26809 9.59849 7.53331 9.59849Z" fill="white"/>
</svg>
