<svg width="17" height="17" viewBox="0 0 17 17" fill="none" xmlns="http://www.w3.org/2000/svg">
<g opacity="0.45" clip-path="url(#clip0_452_3011)">
<path fill-rule="evenodd" clip-rule="evenodd" d="M2.02246 8.10026C2.02246 11.7823 5.00713 14.7669 8.68913 14.7669C12.3711 14.7669 15.3558 11.7823 15.3558 8.10026C15.3558 4.41826 12.3711 1.43359 8.68913 1.43359C5.00713 1.43359 2.02246 4.41826 2.02246 8.10026ZM12.4604 11.8715C11.4602 12.8717 10.1036 13.4336 8.68913 13.4336C7.27464 13.4336 5.91809 12.8717 4.91789 11.8715C3.9177 10.8713 3.35579 9.51475 3.35579 8.10026C3.35579 6.68577 3.9177 5.32922 4.91789 4.32902C5.91809 3.32883 7.27464 2.76693 8.68913 2.76693C10.1036 2.76693 11.4602 3.32883 12.4604 4.32902C13.4606 5.32922 14.0225 6.68577 14.0225 8.10026C14.0225 9.51475 13.4606 10.8713 12.4604 11.8715ZM9.35579 10.7669C9.35579 11.1351 9.05732 11.4336 8.68913 11.4336C8.32094 11.4336 8.02246 11.1351 8.02246 10.7669C8.02246 10.3987 8.32094 10.1002 8.68913 10.1002C9.05732 10.1002 9.35579 10.3987 9.35579 10.7669ZM7.92376 4.91917C8.28921 4.76779 8.69135 4.72819 9.07931 4.80536C9.46727 4.88253 9.82364 5.07302 10.1033 5.35273C10.383 5.63245 10.5735 5.98883 10.6507 6.3768C10.7279 6.76477 10.6883 7.16692 10.5369 7.53238C10.3855 7.89785 10.1292 8.21022 9.80027 8.42999C9.59636 8.56624 9.37024 8.6631 9.13357 8.71705V8.76706C9.13357 9.01253 8.93459 9.21152 8.68913 9.21152C8.44367 9.21152 8.24468 9.01253 8.24468 8.76706V8.3226C8.24468 8.20472 8.29151 8.09167 8.37486 8.00832C8.45821 7.92497 8.57125 7.87814 8.68913 7.87814C8.90888 7.87814 9.12371 7.81297 9.30643 7.69088C9.48915 7.56878 9.63156 7.39525 9.71566 7.19221C9.79976 6.98918 9.82176 6.76576 9.77889 6.55022C9.73602 6.33468 9.63019 6.13669 9.4748 5.98129C9.31941 5.8259 9.12143 5.72007 8.90589 5.6772C8.69036 5.63432 8.46695 5.65633 8.26392 5.74043C8.06089 5.82453 7.88736 5.96695 7.76527 6.14967C7.64318 6.3324 7.57802 6.54723 7.57802 6.76699C7.57802 7.01246 7.37903 7.21145 7.13357 7.21145C6.88811 7.21145 6.68913 7.01246 6.68913 6.76699C6.68913 6.37142 6.80643 5.98472 7.02619 5.65582C7.24595 5.32691 7.55831 5.07055 7.92376 4.91917Z" fill="white"/>
</g>
<defs>
<clipPath id="clip0_452_3011">
<rect width="16" height="16" fill="white" transform="translate(0.689453 0.100586)"/>
</clipPath>
</defs>
</svg>
