<svg width="11" height="11" viewBox="0 0 11 11" fill="none" xmlns="http://www.w3.org/2000/svg">
<path fill-rule="evenodd" clip-rule="evenodd" d="M3.25626 10.0176H1.53163C1.16939 10.0176 0.990544 10.0176 0.881189 9.94758C0.823572 9.90998 0.775609 9.85935 0.741177 9.79979C0.706745 9.74023 0.686809 9.6734 0.682981 9.6047C0.676147 9.47598 0.765568 9.31822 0.94498 9.00382L5.20074 1.4896C5.38186 1.17064 5.47413 1.01117 5.58918 0.951931C5.65076 0.920619 5.71887 0.904297 5.78796 0.904297C5.85704 0.904297 5.92515 0.920619 5.98673 0.951931C6.10236 1.01117 6.19405 1.17064 6.37517 1.4896L7.25002 3.01944L7.25458 3.02741C7.44994 3.36915 7.54904 3.54343 7.59233 3.72569C7.64074 3.92518 7.64074 4.13336 7.59233 4.33285C7.54904 4.51681 7.45051 4.69167 7.2523 5.0391L5.0162 8.99755L5.01051 9.00723C4.81344 9.35239 4.71433 9.52724 4.57536 9.65938C4.42579 9.8026 4.2442 9.90804 4.04567 9.96694C3.86398 10.0176 3.66179 10.0176 3.25626 10.0176ZM7.60941 10.0176H10.079C10.4436 10.0176 10.6269 10.0176 10.7363 9.94587C10.7944 9.90806 10.8426 9.857 10.8771 9.79689C10.9115 9.73679 10.9312 9.66935 10.9345 9.60015C10.9408 9.47541 10.8536 9.32448 10.6822 9.02774L10.664 8.99698L9.42688 6.87708L9.41264 6.85315C9.23893 6.55869 9.15065 6.41004 9.03844 6.35251C8.97734 6.32131 8.9097 6.30504 8.84109 6.30504C8.77248 6.30504 8.70484 6.32131 8.64374 6.35251C8.52982 6.41175 8.4387 6.56723 8.25758 6.87935L7.02448 8.99926L7.02049 9.00667C6.83994 9.31878 6.74938 9.47427 6.75621 9.60243C6.76 9.67144 6.7799 9.73861 6.81432 9.79854C6.84874 9.85848 6.89672 9.90952 6.95442 9.94758C7.0615 10.0176 7.24489 10.0176 7.60941 10.0176Z" fill="white"/>
</svg>
