<svg width="20" height="17" viewBox="0 0 20 17" fill="none" xmlns="http://www.w3.org/2000/svg">
<path d="M14.6062 5.27225C14.2653 5.07744 13.827 5.07744 13.4374 5.27225L10.71 6.87945L8.85931 7.9022L6.18065 9.5094C5.83973 9.70421 5.40141 9.70421 5.01178 9.5094L2.91756 8.24312C2.57664 8.04831 2.33313 7.65869 2.33313 7.22036V4.78522C2.33313 4.3956 2.52794 4.00598 2.91756 3.76246L5.01178 2.54489C5.3527 2.35008 5.79103 2.35008 6.18065 2.54489L8.27487 3.81117C8.61579 4.00598 8.85931 4.3956 8.85931 4.83393V6.44112L10.71 5.36966V3.71376C10.71 3.32414 10.5152 2.93452 10.1256 2.691L6.22936 0.401968C5.88844 0.207157 5.45011 0.207157 5.06049 0.401968L1.06686 2.7397C0.677233 2.93452 0.482422 3.32414 0.482422 3.71376V8.29183C0.482422 8.68145 0.677233 9.07107 1.06686 9.31459L5.01178 11.6036C5.3527 11.7984 5.79103 11.7984 6.18065 11.6036L8.85931 10.0451L10.71 8.97367L13.3887 7.41518C13.7296 7.22037 14.1679 7.22037 14.5575 7.41518L16.6518 8.63275C16.9927 8.82756 17.2362 9.21718 17.2362 9.65551V12.0906C17.2362 12.4803 17.0414 12.8699 16.6518 13.1134L14.6062 14.331C14.2653 14.5258 13.827 14.5258 13.4374 14.331L11.3432 13.1134C11.0022 12.9186 10.7587 12.529 10.7587 12.0906V10.5322L8.90801 11.6036V13.2108C8.90801 13.6004 9.10282 13.9901 9.49244 14.2336L13.4374 16.5226C13.7783 16.7174 14.2166 16.7174 14.6062 16.5226L18.5512 14.2336C18.8921 14.0388 19.1356 13.6491 19.1356 13.2108V8.58404C19.1356 8.19442 18.9408 7.8048 18.5512 7.56128L14.6062 5.27225Z" fill="white"/>
</svg>
