<svg width="17" height="17" viewBox="0 0 17 17" fill="none" xmlns="http://www.w3.org/2000/svg">
<g opacity="0.65" clip-path="url(#clip0_452_3028)">
<path d="M8.90039 1.4834L14.3784 2.70073C14.6831 2.76873 14.9004 3.03873 14.9004 3.3514V10.0094C14.9004 11.3467 14.2317 12.5961 13.1191 13.3374L8.90039 16.1501L4.68172 13.3374C3.56839 12.5954 2.90039 11.3467 2.90039 10.0101V3.3514C2.90039 3.03873 3.11772 2.76873 3.42239 2.70073L8.90039 1.4834ZM8.90039 2.8494L4.23372 3.88607V10.0094C4.23372 10.9007 4.67906 11.7334 5.42106 12.2281L8.90039 14.5481L12.3797 12.2281C13.1217 11.7334 13.5671 10.9014 13.5671 10.0101V3.88607L8.90039 2.85006V2.8494ZM11.8684 6.29806L12.8117 7.24073L8.56906 11.4834L5.74039 8.65473L6.68306 7.71207L8.56839 9.5974L11.8684 6.2974V6.29806Z" fill="#565457"/>
</g>
<defs>
<clipPath id="clip0_452_3028">
<rect width="16" height="16" fill="white" transform="translate(0.900391 0.816406)"/>
</clipPath>
</defs>
</svg>
