<svg width="20" height="21" viewBox="0 0 20 21" fill="none" xmlns="http://www.w3.org/2000/svg">
<path d="M1.53366 15.9901C1.11093 15.259 0.782329 14.4775 0.555664 13.6641C1.04897 13.4132 1.46326 13.0307 1.75269 12.559C2.04213 12.0872 2.19543 11.5446 2.19564 10.9912C2.19584 10.4377 2.04295 9.89501 1.75387 9.42306C1.46478 8.95111 1.05078 8.56833 0.557664 8.31706C1.0097 6.68254 1.87039 5.19001 3.05866 3.98006C3.52276 4.28178 4.06128 4.44922 4.61464 4.46384C5.168 4.47846 5.71462 4.33969 6.19399 4.06289C6.67337 3.78609 7.06682 3.38206 7.33079 2.8955C7.59476 2.40894 7.71897 1.85883 7.68966 1.30606C9.33177 0.881679 11.0549 0.882368 12.6967 1.30806C12.6676 1.86082 12.7921 2.41085 13.0562 2.89727C13.3204 3.38368 13.714 3.78753 14.1935 4.06412C14.673 4.3407 15.2196 4.47924 15.7729 4.46441C16.3263 4.44957 16.8647 4.28194 17.3287 3.98006C17.9077 4.57006 18.4217 5.24106 18.8537 5.99006C19.2867 6.73906 19.6107 7.52006 19.8317 8.31606C19.3384 8.56696 18.9241 8.94943 18.6346 9.42116C18.3452 9.89289 18.1919 10.4355 18.1917 10.9889C18.1915 11.5424 18.3444 12.0851 18.6335 12.5571C18.9225 13.029 19.3365 13.4118 19.8297 13.6631C19.3776 15.2976 18.5169 16.7901 17.3287 18.0001C16.8646 17.6983 16.326 17.5309 15.7727 17.5163C15.2193 17.5017 14.6727 17.6404 14.1933 17.9172C13.714 18.194 13.3205 18.5981 13.0565 19.0846C12.7926 19.5712 12.6684 20.1213 12.6977 20.6741C11.0556 21.0984 9.33243 21.0977 7.69066 20.6721C7.71971 20.1193 7.59526 19.5693 7.33108 19.0828C7.06691 18.5964 6.67331 18.1926 6.19384 17.916C5.71436 17.6394 5.16772 17.5009 4.61439 17.5157C4.06106 17.5305 3.52263 17.6982 3.05866 18.0001C2.46765 17.397 1.95526 16.7216 1.53366 15.9901ZM7.19366 16.1861C8.25929 16.8007 9.06051 17.7871 9.44366 18.9561C9.94266 19.0031 10.4437 19.0041 10.9427 18.9571C11.3261 17.7879 12.1277 16.8015 13.1937 16.1871C14.2589 15.5707 15.5142 15.3695 16.7187 15.6221C17.0087 15.2141 17.2587 14.7791 17.4667 14.3241C16.6461 13.4075 16.1928 12.2203 16.1937 10.9901C16.1937 9.73006 16.6637 8.55306 17.4667 7.65606C17.2572 7.20121 17.0061 6.76669 16.7167 6.35806C15.5129 6.61037 14.2585 6.40953 13.1937 5.79406C12.128 5.17943 11.3268 4.19304 10.9437 3.02406C10.4447 2.97706 9.94366 2.97606 9.44466 3.02306C9.06126 4.1922 8.25967 5.17862 7.19366 5.79306C6.12845 6.40937 4.87314 6.61058 3.66866 6.35806C3.37923 6.76634 3.1288 7.20092 2.92066 7.65606C3.74123 8.57262 4.19455 9.75985 4.19366 10.9901C4.19366 12.2501 3.72366 13.4271 2.92066 14.3241C3.13014 14.7789 3.3812 15.2134 3.67066 15.6221C4.87438 15.3697 6.12887 15.5706 7.19366 16.1861ZM10.1937 13.9901C9.39802 13.9901 8.63495 13.674 8.07234 13.1114C7.50973 12.5488 7.19366 11.7857 7.19366 10.9901C7.19366 10.1944 7.50973 9.43135 8.07234 8.86874C8.63495 8.30613 9.39802 7.99006 10.1937 7.99006C10.9893 7.99006 11.7524 8.30613 12.315 8.86874C12.8776 9.43135 13.1937 10.1944 13.1937 10.9901C13.1937 11.7857 12.8776 12.5488 12.315 13.1114C11.7524 13.674 10.9893 13.9901 10.1937 13.9901ZM10.1937 11.9901C10.4589 11.9901 10.7132 11.8847 10.9008 11.6972C11.0883 11.5096 11.1937 11.2553 11.1937 10.9901C11.1937 10.7248 11.0883 10.4705 10.9008 10.283C10.7132 10.0954 10.4589 9.99006 10.1937 9.99006C9.92845 9.99006 9.67409 10.0954 9.48656 10.283C9.29902 10.4705 9.19366 10.7248 9.19366 10.9901C9.19366 11.2553 9.29902 11.5096 9.48656 11.6972C9.67409 11.8847 9.92845 11.9901 10.1937 11.9901Z" fill="#F6F9F3"/>
</svg>
