<svg width="25" height="25" viewBox="0 0 25 25" fill="none" xmlns="http://www.w3.org/2000/svg">
<path d="M6.06543 6.71973H8.06543V8.71973H6.06543V6.71973Z" fill="#7A27EC"/>
<path d="M3.06543 11.7197V3.71973H11.0654V11.7197H3.06543ZM5.06543 5.71973V9.71973H9.06543V5.71973H5.06543Z" fill="#7A27EC"/>
<path d="M13.0654 13.7197H16.0654V15.7197H13.0654V13.7197Z" fill="#7A27EC"/>
<path d="M16.0654 15.7197H18.0654V13.7197H21.0654V16.7197H18.0654V17.7197H19.0654V18.7197H21.0654V21.7197H19.0654V19.7197H17.0654V21.7197H13.0654V17.7197H15.0654V19.7197H16.0654V15.7197Z" fill="#7A27EC"/>
<path d="M18.0654 6.71973H16.0654V8.71973H18.0654V6.71973Z" fill="#7A27EC"/>
<path d="M13.0654 3.71973V11.7197H21.0654V3.71973H13.0654ZM19.0654 5.71973V9.71973H15.0654V5.71973H19.0654Z" fill="#7A27EC"/>
<path d="M6.06543 16.7197H8.06543V18.7197H6.06543V16.7197Z" fill="#7A27EC"/>
<path d="M3.06543 21.7197V13.7197H11.0654V21.7197H3.06543ZM5.06543 15.7197V19.7197H9.06543V15.7197H5.06543Z" fill="#7A27EC"/>
</svg>
