<svg width="22" height="21" viewBox="0 0 22 21" fill="none" xmlns="http://www.w3.org/2000/svg">
<path d="M18.0528 13.9101C18.7016 12.3684 18.851 10.6621 18.4799 9.03115C18.1087 7.40016 17.2358 5.92651 15.9837 4.81737C14.7316 3.70823 13.1635 3.01938 11.4996 2.84768C9.83577 2.67597 8.15996 3.03004 6.70777 3.86011L5.71577 2.12311C7.23341 1.25573 8.95196 0.801482 10.7 0.805693C12.448 0.809904 14.1643 1.27243 15.6778 2.14711C20.1678 4.73911 21.8878 10.2891 19.7948 14.9171L21.1368 15.6911L16.9718 17.9051L16.8068 13.1911L18.0528 13.9101ZM3.30277 7.70412C2.65392 9.24581 2.50456 10.9521 2.87569 12.5831C3.24682 14.2141 4.11979 15.6877 5.37185 16.7969C6.62391 17.906 8.1921 18.5949 9.85594 18.7666C11.5198 18.9383 13.1956 18.5842 14.6478 17.7541L15.6398 19.4911C14.1221 20.3585 12.4036 20.8127 10.6556 20.8085C8.90756 20.8043 7.19121 20.3418 5.67777 19.4671C1.18777 16.8751 -0.532227 11.3251 1.56077 6.69711L0.217773 5.92412L4.38277 3.71011L4.54777 8.42411L3.30177 7.70511L3.30277 7.70412ZM12.0928 13.6351L9.26177 10.8071L6.43377 13.6351L5.01977 12.2211L9.26277 7.97912L12.0918 10.8071L14.9208 7.97912L16.3348 9.39312L12.0918 13.6351H12.0928Z" fill="currentColor"/>
</svg>
