<svg width="18" height="21" viewBox="0 0 18 21" fill="none" xmlns="http://www.w3.org/2000/svg">
<path d="M15.5466 10.464L15.5358 14.4303L12.1766 16.4134V18.7354L17.5017 15.6021V9.30422L15.5466 10.464ZM15.5466 6.49782V8.80904L17.5029 7.64802V5.3368L15.5466 4.17578L13.5807 5.3368L15.5466 6.49782ZM10.7738 5.3368L8.81746 4.17578L6.85155 5.3368L8.81746 6.49782L10.7738 5.3368Z" fill="white"/>
<path d="M14.1328 13.6082V11.2861L12.1765 12.4471V14.7584L14.1328 13.6082ZM10.7736 17.2451L8.81731 18.4061L6.8514 17.2451V19.5563L8.81731 20.7173L10.7736 19.5563V17.2451ZM4.04569 5.3368L2.08937 4.17578L0.123455 5.3368V7.64802L2.08937 8.80904V6.49782L4.04569 5.3368ZM2.08937 14.4303L2.07858 10.464L0.122257 9.30302V15.6009L5.44735 18.7342V16.4122L2.08937 14.4303Z" fill="white"/>
<path d="M3.49289 13.6082L5.44922 14.7584V12.4472L3.49289 11.2861V13.6082Z" fill="white"/>
<path d="M3.49222 7.32008L3.48144 9.64212L6.8502 11.6252V15.6011L8.80653 16.7513L10.7629 15.6011V11.6252L14.1316 9.64212V7.32008L12.1669 6.15906L8.81851 8.15178L5.44974 6.15906L3.48383 7.32008H3.49222ZM14.1328 3.35506L8.81731 0.210938L3.49222 3.35506L5.44855 4.51608L8.81731 2.52336L12.1765 4.51608L14.1328 3.35506Z" fill="white"/>
</svg>
