<svg width="28" height="22" viewBox="0 0 28 22" fill="none" xmlns="http://www.w3.org/2000/svg">
<path fill-rule="evenodd" clip-rule="evenodd" d="M13.998 12.4628C11.7373 12.4628 9.90479 10.6311 9.90479 8.3696C9.90479 6.10805 11.7373 4.27637 13.998 4.27637C16.2575 4.27637 18.0912 6.10805 18.0912 8.3696C18.0912 10.6311 16.2575 12.4628 13.998 12.4628ZM12.2176 8.3696C12.2176 9.35294 13.0157 10.1492 13.998 10.1492C14.9803 10.1492 15.7771 9.35294 15.7771 8.3696C15.7771 7.38631 14.9803 6.58993 13.998 6.58993C13.0157 6.58993 12.2176 7.38631 12.2176 8.3696Z" fill="#04CD58"/>
<path fill-rule="evenodd" clip-rule="evenodd" d="M0.830078 8.37506L8.66069 0.539062H19.3391L27.1698 8.37506L14.0006 21.5391L0.830078 8.37506ZM20.0508 5.52209C16.7239 2.18034 11.276 2.18037 7.94905 5.5221L5.10121 8.36959L7.94905 11.2171C11.276 14.5589 16.7239 14.5589 20.0508 11.2171L22.8986 8.36959L20.0508 5.52209Z" fill="#04CD58"/>
</svg>
