<svg width="9" height="9" viewBox="0 0 9 9" fill="none" xmlns="http://www.w3.org/2000/svg">
<path d="M5.82847 6.95005C5.68195 6.44206 5.62902 5.90595 5.89706 5.63789C6.16512 5.36984 6.69809 5.42599 7.20922 5.57243C7.99459 5.79373 8.86727 5.05504 8.8361 4.23538C8.79248 3.10709 8.21276 2.16268 7.19356 1.39917C6.48402 0.870934 5.62163 0.588204 4.73706 0.593832C3.85248 0.59946 2.99379 0.893125 2.29107 1.43034C1.71412 1.90522 1.28211 2.5326 1.04431 3.24106C0.806514 3.94948 0.772426 4.71051 0.946079 5.43736C1.11965 6.16421 1.49387 6.8277 2.02615 7.35227C2.75544 8.08469 3.5159 8.55533 4.47286 8.59895C5.29252 8.63012 6.05611 7.73872 5.82863 6.95023L5.82847 6.95005ZM5.40771 1.74194C5.57301 1.74194 5.73156 1.80761 5.8485 1.92449C5.96538 2.04143 6.03105 2.19999 6.03105 2.36528C6.03105 2.53057 5.96538 2.68913 5.8485 2.80607C5.73156 2.92295 5.573 2.98862 5.40771 2.98862C5.24242 2.98862 5.08386 2.92295 4.96692 2.80607C4.85004 2.68912 4.78437 2.53057 4.78437 2.36528C4.78437 2.19999 4.85004 2.04142 4.96692 1.92449C5.08387 1.80761 5.24242 1.74194 5.40771 1.74194ZM2.60267 2.98862C2.60267 2.82332 2.66835 2.66477 2.78522 2.54783C2.90217 2.43095 3.06072 2.36528 3.22601 2.36528C3.39131 2.36528 3.54987 2.43095 3.66681 2.54783C3.78368 2.66477 3.84936 2.82333 3.84936 2.98862C3.84936 3.15391 3.78368 3.31247 3.66681 3.42941C3.54986 3.54629 3.39131 3.61196 3.22601 3.61196C3.06072 3.61196 2.90216 3.54629 2.78522 3.42941C2.66835 3.31247 2.60267 3.15391 2.60267 2.98862ZM6.65439 3.92363C6.65439 3.75834 6.72007 3.59978 6.83695 3.48284C6.95389 3.36596 7.11244 3.30029 7.27774 3.30029C7.44303 3.30029 7.60159 3.36596 7.71853 3.48284C7.83541 3.59979 7.90108 3.75834 7.90108 3.92363C7.90108 4.08893 7.83541 4.24749 7.71853 4.36442C7.60158 4.4813 7.44303 4.54697 7.27774 4.54697C7.11244 4.54697 6.95388 4.4813 6.83695 4.36442C6.72007 4.24748 6.65439 4.08893 6.65439 3.92363ZM1.97933 5.17032C1.97933 5.00502 2.045 4.84646 2.16188 4.72952C2.27883 4.61265 2.43738 4.54697 2.60267 4.54697C2.76796 4.54697 2.92653 4.61265 3.04346 4.72952C3.16034 4.84647 3.22601 5.00502 3.22601 5.17032C3.22601 5.33561 3.16034 5.49417 3.04346 5.61111C2.92652 5.72798 2.76796 5.79366 2.60267 5.79366C2.43738 5.79366 2.27882 5.72798 2.16188 5.61111C2.045 5.49416 1.97933 5.33561 1.97933 5.17032ZM3.53769 7.04034C3.53769 6.87505 3.60336 6.71649 3.72024 6.59955C3.83718 6.48267 3.99573 6.417 4.16103 6.417C4.32632 6.417 4.48488 6.48267 4.60182 6.59955C4.7187 6.7165 4.78437 6.87505 4.78437 7.04034C4.78437 7.20563 4.7187 7.3642 4.60182 7.48113C4.48487 7.59801 4.32632 7.66368 4.16103 7.66368C3.99573 7.66368 3.83717 7.59801 3.72024 7.48113C3.60336 7.36419 3.53769 7.20563 3.53769 7.04034Z" fill="#D8DBD5"/>
</svg>
