<svg width="20" height="20" viewBox="0 0 20 20" fill="none" xmlns="http://www.w3.org/2000/svg">
<path d="M13.3332 6.66684C13.1769 6.51061 12.965 6.42285 12.744 6.42285C12.5231 6.42285 12.3112 6.51061 12.1549 6.66684L9.99988 8.82185L7.84488 6.66684C7.68771 6.51504 7.47721 6.43105 7.25871 6.43295C7.04021 6.43484 6.8312 6.52248 6.67669 6.67699C6.52219 6.8315 6.43455 7.04051 6.43265 7.25901C6.43075 7.47751 6.51475 7.68801 6.66654 7.84518L8.82154 10.0002L6.66654 12.1552C6.51475 12.3124 6.43075 12.5229 6.43265 12.7414C6.43455 12.9599 6.52219 13.1689 6.67669 13.3234C6.8312 13.4779 7.04021 13.5655 7.25871 13.5674C7.47721 13.5693 7.68771 13.4853 7.84488 13.3335L9.99988 11.1785L12.1549 13.3335C12.312 13.4853 12.5225 13.5693 12.741 13.5674C12.9595 13.5655 13.1686 13.4779 13.3231 13.3234C13.4776 13.1689 13.5652 12.9599 13.5671 12.7414C13.569 12.5229 13.485 12.3124 13.3332 12.1552L11.1782 10.0002L13.3332 7.84518C13.4894 7.6889 13.5772 7.47698 13.5772 7.25601C13.5772 7.03504 13.4894 6.82311 13.3332 6.66684Z" fill="currentColor"/>
<path d="M10 0C8.02219 0 6.08879 0.58649 4.4443 1.6853C2.79981 2.78412 1.51809 4.3459 0.761209 6.17316C0.00433284 8.00042 -0.193701 10.0111 0.192152 11.9509C0.578004 13.8907 1.53041 15.6725 2.92894 17.0711C4.32746 18.4696 6.10929 19.422 8.0491 19.8078C9.98891 20.1937 11.9996 19.9957 13.8268 19.2388C15.6541 18.4819 17.2159 17.2002 18.3147 15.5557C19.4135 13.9112 20 11.9778 20 10C19.9971 7.34871 18.9426 4.80684 17.0679 2.9321C15.1932 1.05736 12.6513 0.00286757 10 0V0ZM10 18.3333C8.35183 18.3333 6.74066 17.8446 5.37025 16.9289C3.99984 16.0132 2.93174 14.7117 2.30101 13.189C1.67028 11.6663 1.50525 9.99075 1.82679 8.37424C2.14834 6.75774 2.94201 5.27288 4.10745 4.10744C5.27289 2.942 6.75774 2.14833 8.37425 1.82679C9.99076 1.50525 11.6663 1.67027 13.189 2.301C14.7118 2.93173 16.0132 3.99984 16.9289 5.37025C17.8446 6.74066 18.3333 8.35182 18.3333 10C18.3309 12.2094 17.4522 14.3276 15.8899 15.8899C14.3276 17.4521 12.2094 18.3309 10 18.3333V18.3333Z" fill="currentColor"/>
</svg>
