<svg width="22" height="20" viewBox="0 0 22 20" fill="none" xmlns="http://www.w3.org/2000/svg">
<rect x="0.552246" y="0.540527" width="20.5299" height="19.3223" rx="4" fill="currentColor"/>
<path d="M14.8357 11.4732L13.8476 7.44323C14.3745 7.13324 14.7698 6.57527 14.7698 5.89326C14.7698 4.83923 13.9135 4.03329 12.7936 4.03329C11.6737 4.03329 10.8174 4.83923 10.8174 5.89326C10.8174 6.32729 11.015 6.76122 11.2785 7.07122L9.23642 10.2952C9.10464 10.2331 8.84116 10.2331 8.77526 10.2331L7.52368 7.2572C7.91894 6.9472 8.18242 6.45116 8.18242 5.89317C8.18242 4.83915 7.3261 4.0332 6.2062 4.0332C5.08629 4.0332 4.22998 4.83915 4.22998 5.89317C4.22998 6.9472 5.08629 7.75314 6.2062 7.75314H6.27209L7.52367 10.7291C7.12841 11.1011 6.86493 11.535 6.86493 12.0931C6.86493 13.1471 7.72125 13.9531 8.84115 13.9531C9.96106 13.9531 10.8174 13.1471 10.8174 12.0931C10.8174 11.6591 10.6198 11.2252 10.3562 10.9152L12.3983 7.69121H12.5959L13.584 11.7211C12.7277 12.1552 12.1347 12.9611 12.1347 13.8911C12.1347 15.2551 13.3204 16.3711 14.7697 16.3711C16.219 16.3711 17.4047 15.2551 17.4047 13.8911C17.4047 12.5891 16.2848 11.5351 14.8356 11.4731L14.8357 11.4732ZM6.20622 6.51325C5.81095 6.51325 5.54748 6.26527 5.54748 5.89326C5.54748 5.52124 5.81095 5.27327 6.20622 5.27327C6.60149 5.27327 6.86496 5.52124 6.86496 5.89326C6.86496 6.26527 6.60149 6.51325 6.20622 6.51325ZM8.84118 12.7131C8.44591 12.7131 8.18244 12.4652 8.18244 12.0932C8.18244 11.5352 8.77528 11.4732 8.84118 11.4732C9.23645 11.4732 9.49992 11.7211 9.49992 12.0932C9.49992 12.4032 9.17055 12.7131 8.84118 12.7131ZM12.7936 6.51325C12.3983 6.51325 12.1349 6.26527 12.1349 5.89326C12.1349 5.52124 12.3983 5.27327 12.7936 5.27327C13.1889 5.27327 13.4524 5.52124 13.4524 5.89326C13.4524 6.20325 13.123 6.51325 12.7936 6.51325ZM14.7698 15.1931C14.0452 15.1931 13.4524 14.6351 13.4524 13.9531C13.4524 13.2711 14.0452 12.7131 14.7698 12.7131C15.4945 12.7131 16.0873 13.2711 16.0873 13.9531C16.0873 14.6351 15.4945 15.1931 14.7698 15.1931Z" fill="white"/>
</svg>
