<svg width="21" height="13" viewBox="0 0 21 13" fill="none" xmlns="http://www.w3.org/2000/svg">
<path d="M5.60431 11.042C4.65383 11.042 3.87558 10.8187 3.26957 10.3722C2.66993 9.91925 2.37012 9.26859 2.37012 8.43293C2.37012 8.25431 2.38925 8.0438 2.42753 7.78864C2.52959 7.21452 2.67631 6.52558 2.86769 5.71544C3.40991 3.52103 4.81331 2.42383 7.0715 2.42383C7.6839 2.42383 8.23888 2.52589 8.72369 2.7364C9.2085 2.93415 9.59124 3.24035 9.87192 3.64861C10.1526 4.05049 10.2929 4.52893 10.2929 5.08391C10.2929 5.24976 10.2738 5.46027 10.2355 5.71544C10.1143 6.42351 9.97399 7.11883 9.80175 7.78864C9.52107 8.87946 9.04264 9.70236 8.3537 10.2446C7.67114 10.7804 6.75255 11.042 5.60431 11.042ZM5.77655 9.31962C6.22308 9.31962 6.59945 9.18566 6.91203 8.92412C7.23098 8.66257 7.46063 8.26069 7.59459 7.71209C7.77958 6.95936 7.91992 6.30869 8.01561 5.74733C8.0475 5.58147 8.06664 5.40924 8.06664 5.23063C8.06664 4.50341 7.69027 4.1398 6.93116 4.1398C6.48463 4.1398 6.10188 4.27376 5.78293 4.5353C5.47035 4.79685 5.24708 5.19873 5.11312 5.74733C4.9664 6.28317 4.82607 6.93384 4.67935 7.71209C4.64745 7.87157 4.62831 8.03742 4.62831 8.21604C4.62193 8.95601 5.01106 9.31962 5.77655 9.31962Z" fill="white"/>
<path d="M10.8478 10.9261C10.7585 10.9261 10.6947 10.9005 10.6436 10.8431C10.6054 10.7793 10.5926 10.7092 10.6054 10.6262L12.2576 2.84376C12.2703 2.75445 12.315 2.68429 12.3915 2.62687C12.4617 2.56946 12.5382 2.54395 12.6212 2.54395H15.8043C16.691 2.54395 17.3991 2.72894 17.9349 3.09255C18.4772 3.46253 18.7515 3.992 18.7515 4.68732C18.7515 4.88507 18.7259 5.09558 18.6813 5.31247C18.4835 6.23106 18.0817 6.90724 17.4693 7.3474C16.8696 7.78755 16.0467 8.00444 15.0006 8.00444H13.3867L12.8381 10.6262C12.8189 10.7156 12.7806 10.7857 12.7041 10.8431C12.6339 10.9005 12.5574 10.9261 12.4744 10.9261H10.8478ZM15.0835 6.35226C15.4216 6.35226 15.7086 6.26295 15.9574 6.07796C16.2126 5.89297 16.3784 5.63142 16.4614 5.28695C16.4869 5.15299 16.4996 5.03179 16.4996 4.92972C16.4996 4.70008 16.4295 4.52146 16.2955 4.40026C16.1616 4.27268 15.9255 4.20889 15.6002 4.20889H14.1649L13.712 6.35226H15.0835Z" fill="white"/>
</svg>
