<svg width="23" height="26" viewBox="0 0 23 26" fill="none" xmlns="http://www.w3.org/2000/svg">
<path d="M20.0876 13.1234L20.0741 18.0974L15.8613 20.5844V23.4965L22.5395 19.567V11.6689L20.0876 13.1234ZM20.0876 8.14937V11.0479L22.541 9.59184V6.69334L20.0876 5.2373L17.6221 6.69334L20.0876 8.14937ZM14.102 6.69334L11.6486 5.2373L9.18314 6.69334L11.6486 8.14937L14.102 6.69334Z" fill="white"/>
<path d="M18.3145 17.0664V14.1544L15.861 15.6104V18.5089L18.3145 17.0664ZM14.1017 21.6275L11.6483 23.0835L9.18284 21.6275V24.526L11.6483 25.982L14.1017 24.526V21.6275ZM5.66421 6.69334L3.21079 5.2373L0.74534 6.69334V9.59184L3.21079 11.0479V8.14937L5.66421 6.69334ZM3.21079 18.0974L3.19726 13.1234L0.743837 11.6674V19.5655L7.42202 23.495V20.5829L3.21079 18.0974Z" fill="white"/>
<path d="M4.9704 17.0664L7.42383 18.5088V15.6103L4.9704 14.1543V17.0664Z" fill="white"/>
<path d="M4.9701 9.1807L4.95658 12.0928L9.18134 14.5798V19.5659L11.6348 21.0083L14.0882 19.5659V14.5798L18.313 12.0928V9.1807L15.849 7.72467L11.6498 10.2237L7.42503 7.72467L4.95959 9.1807H4.9701ZM18.3145 4.20818L11.6483 0.265137L4.9701 4.20818L7.42353 5.66421L11.6483 3.16514L15.861 5.66421L18.3145 4.20818Z" fill="white"/>
</svg>
