<svg width="17" height="17" viewBox="0 0 17 17" fill="none" xmlns="http://www.w3.org/2000/svg">
<g clip-path="url(#clip0_452_5146)">
<path d="M16.6426 8.07984C16.6426 9.14055 15.6648 9.9362 15.2204 10.8201C14.8648 11.7041 14.9537 13.03 14.2426 13.7372C13.5315 14.4444 12.287 14.2676 11.3093 14.7096C10.4204 15.0632 9.62036 16.124 8.55369 16.124C7.48702 16.124 6.68702 15.1516 5.79814 14.7096C4.90925 14.356 3.57591 14.4444 2.8648 13.7372C2.15369 13.03 2.33147 11.7925 1.88702 10.8201C1.62036 9.9362 0.642578 9.14055 0.642578 8.07984C0.642578 7.01904 1.62036 6.22347 2.0648 5.33949C2.42036 4.45551 2.33147 3.12955 3.04258 2.42237C3.6648 1.80358 4.99814 1.89198 5.88702 1.53838C6.77591 1.0964 7.57591 0.124023 8.64258 0.124023C9.70925 0.124023 10.5092 1.0964 11.3982 1.53838C12.287 1.89198 13.6204 1.80358 14.3315 2.51076C15.0426 3.21794 14.8648 4.45551 15.3093 5.42789C15.6648 6.22347 16.6426 7.01904 16.6426 8.07984Z" fill="#3672C4"/>
<path d="M5.42127 8.58008C5.14213 8.29993 5.14213 7.84572 5.42127 7.56557C5.7004 7.28543 6.15297 7.28543 6.43211 7.56557L8.45379 9.59458C8.73292 9.87473 8.73292 10.3289 8.45379 10.609C8.17465 10.8892 7.72208 10.8892 7.44295 10.609L5.42127 8.58008Z" fill="white"/>
<path d="M7.44275 10.609C7.16361 10.3289 7.16361 9.87465 7.44275 9.5945L11.5201 5.50064C11.7993 5.22049 12.2518 5.22049 12.531 5.50064C12.8101 5.78078 12.8101 6.23499 12.531 6.51514L8.45359 10.609C8.17445 10.8892 7.72188 10.8892 7.44275 10.609Z" fill="white"/>
</g>
<defs>
<clipPath id="clip0_452_5146">
<rect width="16" height="16" fill="white" transform="translate(0.642578 0.124023)"/>
</clipPath>
</defs>
</svg>
