<svg width="27" height="22" viewBox="0 0 27 22" fill="none" xmlns="http://www.w3.org/2000/svg">
<path d="M13.947 12.5028H21.3508C21.5087 12.5028 21.5832 12.5028 21.5946 12.2959C21.6551 11.5427 21.6551 10.7851 21.5946 10.0311C21.5946 9.88463 21.5218 9.82413 21.3631 9.82413H6.62824C6.44587 9.82413 6.39677 9.88463 6.39677 10.0556V12.2231C6.39677 12.5028 6.39677 12.5028 6.68875 12.5028H13.947ZM20.7678 7.29102C20.7888 7.23578 20.7888 7.17528 20.7678 7.12091C20.6441 6.85173 20.4977 6.59483 20.3276 6.3537C20.0716 5.9416 19.7699 5.56194 19.4262 5.22086C19.264 5.01481 19.0764 4.8298 18.8659 4.67285C17.812 3.77587 16.559 3.14105 15.2123 2.82189C14.5327 2.66933 13.8383 2.59655 13.1421 2.60269H6.60282C6.42044 2.60269 6.39589 2.67546 6.39589 2.83417V7.15686C6.39589 7.33924 6.39589 7.38834 6.62737 7.38834H20.6801C20.6801 7.38834 20.802 7.36379 20.8265 7.29102H20.7669H20.7678ZM20.7678 15.0359C20.5608 15.0131 20.3522 15.0131 20.1452 15.0359H6.64052C6.45814 15.0359 6.39677 15.0359 6.39677 15.2797V19.5059C6.39677 19.7006 6.39677 19.7497 6.64052 19.7497H12.8756C13.1737 19.7725 13.4718 19.7514 13.7638 19.6892C14.6686 19.6243 15.5586 19.4279 16.4074 19.1043C16.716 18.9974 17.0141 18.858 17.2956 18.6905H17.3806C18.8423 17.9303 20.0295 16.7361 20.7783 15.27C20.7783 15.27 20.8633 15.0859 20.7678 15.0377V15.0359ZM3.94957 21.9408V21.8681V19.0307V18.0688V15.2069C3.94957 15.0482 3.94957 15.0245 3.75492 15.0245H1.1122C0.965774 15.0245 0.905273 15.0245 0.905273 14.8299V12.516H3.73037C3.8882 12.516 3.94957 12.516 3.94957 12.309V10.0197C3.94957 9.87324 3.94957 9.83729 3.75492 9.83729H1.1122C0.965774 9.83729 0.905273 9.83729 0.905273 9.64263V7.4997C0.905273 7.36555 0.905274 7.3296 1.09993 7.3296H3.7181C3.90047 7.3296 3.94957 7.3296 3.94957 7.09812V0.534282C3.94957 0.33963 3.94957 0.290527 4.19333 0.290527H13.3262C13.9891 0.316832 14.6476 0.389607 15.2991 0.509731C16.6415 0.75787 17.9313 1.23749 19.1106 1.92228C19.8927 2.38261 20.6126 2.93851 21.2535 3.57858C21.7358 4.07924 22.1707 4.62112 22.5565 5.19806C22.9396 5.7829 23.2579 6.40806 23.5078 7.06129C23.5385 7.23139 23.7016 7.34626 23.8717 7.31732H26.0514C26.3312 7.31732 26.3312 7.31732 26.3434 7.58563V9.58301C26.3434 9.77766 26.2707 9.82677 26.0751 9.82677H24.3943C24.2242 9.82677 24.1751 9.82677 24.1873 10.046C24.254 10.7878 24.254 11.5322 24.1873 12.274C24.1873 12.4809 24.1873 12.5054 24.4197 12.5054H26.3425C26.4276 12.615 26.3425 12.7246 26.3425 12.8351C26.3548 12.9763 26.3548 13.1192 26.3425 13.2604V14.7343C26.3425 14.9412 26.2821 15.0026 26.0988 15.0026H23.7972C23.6367 14.9719 23.4806 15.0745 23.4438 15.2341C22.8958 16.6589 22.019 17.9364 20.8861 18.9605C20.4723 19.3332 20.0374 19.6839 19.5832 20.0075C19.0957 20.288 18.6213 20.58 18.1215 20.8115C17.2018 21.2254 16.2373 21.5305 15.2473 21.7243C14.3074 21.8926 13.3543 21.9689 12.3977 21.9557H3.94607V21.9435L3.94957 21.9408Z" fill="#FEFEFD"/>
</svg>
