<svg width="27" height="24" viewBox="0 0 27 24" fill="none" xmlns="http://www.w3.org/2000/svg">
<path fill-rule="evenodd" clip-rule="evenodd" d="M16.2195 13.0004C16.0755 13.0112 15.3318 13.0556 13.673 13.0556C12.3536 13.0556 11.4168 13.016 11.0881 13.0004C5.98916 12.7761 2.18323 11.8885 2.18323 10.8258C2.18323 9.76303 5.98916 8.87661 11.0881 8.64872V12.1164C11.4216 12.1404 12.3763 12.1968 13.6958 12.1968C15.2791 12.1968 16.0719 12.1308 16.2147 12.1176V8.65111C21.3028 8.87781 25.1003 9.76542 25.1003 10.8258C25.1003 11.8861 21.304 12.7737 16.2147 12.9992L16.2195 13.0004ZM16.2195 8.29247V5.18944H23.3203V0.45752H3.98724V5.18944H11.0869V8.29127C5.31625 8.55636 0.976562 9.69945 0.976562 11.0693C0.976562 12.439 5.31625 13.5809 11.0869 13.8472V23.7909H16.2183V13.8436C21.9757 13.5785 26.3082 12.4367 26.3082 11.0681C26.3082 9.69945 21.9793 8.55756 16.2183 8.29127L16.2195 8.29247Z" fill="white"/>
</svg>
