<svg width="29" height="28" viewBox="0 0 29 28" fill="none" xmlns="http://www.w3.org/2000/svg">
<path d="M19.7289 16.8215C19.7289 14.1241 18.1104 13.1992 14.8734 12.8139C12.5612 12.5056 12.0988 11.8891 12.0988 10.8099C12.0988 9.7308 12.8696 9.03734 14.411 9.03734C15.7983 9.03734 16.569 9.49977 16.9543 10.6558C17.0315 10.8871 17.2627 11.0411 17.4939 11.0411H18.7269C19.0353 11.0411 19.2665 10.8099 19.2665 10.5018V10.4246C18.9581 8.72899 17.5708 7.41884 15.7983 7.26476V5.41504C15.7983 5.10669 15.567 4.87547 15.1817 4.79834H14.0257C13.7173 4.79834 13.4861 5.02955 13.409 5.41504V7.18762C11.0968 7.49597 9.63258 9.03734 9.63258 10.9642C9.63258 13.5076 11.174 14.5094 14.411 14.8949C16.569 15.2801 17.2627 15.7426 17.2627 16.9758C17.2627 18.209 16.1835 19.0567 14.7193 19.0567C12.7153 19.0567 12.0217 18.2088 11.7905 17.0527C11.7135 16.7446 11.4823 16.5903 11.2511 16.5903H9.94075C9.63258 16.5903 9.40137 16.8215 9.40137 17.1299V17.207C9.70953 19.1337 10.9427 20.521 13.4861 20.9064V22.7562C13.4861 23.0643 13.7173 23.2955 14.1026 23.3727H15.2587C15.567 23.3727 15.7983 23.1415 15.8754 22.7562V20.9064C18.1875 20.521 19.7289 18.9025 19.7289 16.8215Z" fill="white"/>
<path d="M10.7113 24.9138C4.69973 22.7559 1.6168 16.0507 3.852 10.1161C5.00808 6.87906 7.55144 4.41283 10.7113 3.25676C11.0197 3.10268 11.1737 2.87146 11.1737 2.48598V1.40704C11.1737 1.09869 11.0197 0.867476 10.7113 0.790527C10.6342 0.790527 10.4801 0.790527 10.403 0.867475C3.08123 3.17962 -0.926563 10.964 1.38559 18.2857C2.77288 22.6017 6.08702 25.9158 10.403 27.3031C10.7113 27.4572 11.0197 27.3031 11.0966 26.9948C11.1737 26.9178 11.1737 26.8407 11.1737 26.6866V25.6075C11.1737 25.3763 10.9425 25.0681 10.7113 24.9138ZM18.881 0.867475C18.5726 0.713394 18.2643 0.867475 18.1873 1.17582C18.1102 1.25296 18.1102 1.32991 18.1102 1.48417V2.56311C18.1102 2.87146 18.3414 3.17963 18.5726 3.33389C24.5842 5.49178 27.6671 12.197 25.4319 18.1316C24.2759 21.3687 21.7325 23.8349 18.5726 24.991C18.2643 25.145 18.1102 25.3763 18.1102 25.7617V26.8407C18.1102 27.149 18.2643 27.3802 18.5726 27.4572C18.6498 27.4572 18.8038 27.4572 18.881 27.3802C26.2027 25.0681 30.2105 17.2837 27.8984 9.96199C26.5111 5.56891 23.1198 2.25476 18.881 0.867475Z" fill="white"/>
</svg>
