<svg width="28" height="28" viewBox="0 0 28 28" fill="none" xmlns="http://www.w3.org/2000/svg">
<path d="M24.6982 27.3332H3.74581C2.16784 27.3332 0.888672 26.054 0.888672 24.476V3.52365C0.888672 1.94567 2.16784 0.666504 3.74581 0.666504H24.6982C26.2762 0.666504 27.5553 1.94567 27.5553 3.52365V24.476C27.5553 26.054 26.2762 27.3332 24.6982 27.3332ZM12.5145 21.4963L23.4669 10.5439C23.8388 10.172 23.8388 9.569 23.4669 9.1971L22.12 7.85025C21.7481 7.47835 21.1451 7.47829 20.7731 7.85025L11.8411 16.7823L7.67087 12.6121C7.29897 12.2402 6.69593 12.2402 6.32397 12.6121L4.97712 13.9589C4.60522 14.3309 4.60522 14.9339 4.97712 15.3058L11.1676 21.4963C11.5396 21.8683 12.1425 21.8683 12.5145 21.4963Z" fill="#5F7BE5"/>
</svg>
